<svg t="1727002894029" class="icon" viewBox="0 0 1024 1024" version="1.1" xmlns="http://www.w3.org/2000/svg" p-id="4530" width="16" height="16"><path d="M393.012865 330.571535l-1.086002-281.402226c-0.479118-21.680109-18.382177-34.69616-40.102213-35.175278h-29.146371c-21.656153-0.479118-38.856505 18.390162-38.377387 40.054301l1.213767 153.030427-192.853154-189.970458a53.485588 53.485588 0 0 0-75.852433 0 53.980677 53.980677 0 0 0 0 76.068036l191.088401 189.35559-146.490461 0.590913c-21.656153-0.550986-41.747186 14.477362-45.037132 40.086242v27.645134c0.550986 21.728021 18.44606 39.686977 40.102213 40.166095l279.70934-1.652959c0.415236 0.039927 0.694722 0.199633 1.062046 0.199633l19.6199 0.431206a36.940031 36.940031 0 0 0 27.437515-11.019723c7.02707-6.979158 9.622295-16.737204 9.334825-27.645134l-2.092151-19.683782c0-0.383295 1.453326-0.64681 1.453326-1.086002h0.015971z m419.41229 408.943553l146.290828-0.582928c21.664138 0.479118 41.715245-12.848359 45.037132-38.449254v-27.645133c-0.543001-21.736006-18.501957-39.686977-40.094227-40.245949l-276.131923 1.676915c-0.423221 0-0.686736-0.167691-1.101973-0.167692l-19.571987-0.479118a37.051825 37.051825 0 0 0-27.509384 11.027709c-7.066997 6.931247-9.590354 16.721233-9.37475 27.629163l2.156033 19.643856c0.039927 0.479118-1.413399 0.758604-1.4134 1.125928l1.125928 277.066204c0.550986 21.664138 18.44606 34.640263 40.102213 35.111396l27.54931 0.047912c21.600256 0.495089 38.86449-18.44606 38.329475-40.134154l-1.221752-149.740481 192.853154 191.216166a53.421705 53.421705 0 0 0 75.812506 0 53.876868 53.876868 0 0 0 0-76.04408L812.425155 739.507102v0.007986zM384.292909 644.657623a37.019884 37.019884 0 0 0-27.445501-11.035694l-19.6199 0.479118c-0.399265 0-0.654795 0.175677-1.093987 0.175677l-279.685384-1.676914c-21.656153 0.558972-39.583168 18.509942-40.102213 40.245948v27.645133c3.265991 25.600895 23.357024 38.920387 44.981235 38.441269l148.15939 0.479119-192.701433 191.072431c-20.921505 20.969417-20.921505 55.018767 0 76.052065a53.453646 53.453646 0 0 0 75.828477 0l192.885095-189.970458-1.237722 150.650806c-0.479118 21.736006 16.721233 40.66917 38.33746 40.126168h29.146371c21.720036-0.550986 39.623094-13.455243 40.102213-35.183263l1.125928-279.134399c0-0.399265-1.453326-0.654795-1.453326-1.086002l2.092151-19.643855c0.239559-10.90793-2.283798-20.697916-9.310869-27.629163h-0.007985zM639.463401 379.026379a36.892119 36.892119 0 0 0 27.493413 10.971812l19.564002-0.431206c0.439192 0 0.702707-0.159706 1.141899-0.223589l280.124577 1.676915c21.656153-0.495089 39.551227-18.46203 40.094227-40.190051l0.071868-27.653119c-3.329873-25.640821-23.452847-40.597302-45.037133-40.126169l-148.646493-0.582927 190.984592-189.371561c21.001358-20.945461 21.001358-54.930928 0.063883-75.964227a53.42969 53.42969 0 0 0-75.812507 0L736.652575 208.292526l1.237722-154.212253c0.519045-21.664138-16.745189-40.605287-38.345445-40.126168h-27.54931c-21.664138 0.550986-39.559212 13.519125-40.102212 35.183263l-1.109958 281.458123c0 0.431207 1.437355 0.702707 1.437355 1.086002l-2.132077 19.683782c-0.223589 10.90793 2.299768 20.665975 9.374751 27.653119v0.007985z" p-id="4531"></path></svg>