<svg t="1727002858736" class="icon" viewBox="0 0 1024 1024" version="1.1" xmlns="http://www.w3.org/2000/svg" p-id="3471" width="16" height="16"><path d="M512 469.333v-40.746a23.467 23.467 0 0 1 6.699-16.427 22.656 22.656 0 0 1 32.426 0l82.176 83.413c8.96 9.046 8.96 23.808 0 32.854l-82.176 83.413a22.741 22.741 0 0 1-16.213 6.827A23.083 23.083 0 0 1 512 595.413v-40.746H170.667a42.667 42.667 0 0 1 0-85.334H512zM128 256v-42.667A85.333 85.333 0 0 1 213.333 128h597.334A85.333 85.333 0 0 1 896 213.333v597.334A85.333 85.333 0 0 1 810.667 896H213.333A85.333 85.333 0 0 1 128 810.667V768a42.667 42.667 0 0 1 85.333 0v42.667h597.334V213.333H213.333V256A42.667 42.667 0 1 1 128 256z" p-id="3472"></path></svg>