<svg t="1727002983025" class="icon" viewBox="0 0 1024 1024" version="1.1" xmlns="http://www.w3.org/2000/svg" p-id="8566" width="16" height="16"><path d="M85.333333 170.666667v682.666666h853.333334V170.666667H85.333333z m0-85.333334h853.333334a85.333333 85.333333 0 0 1 85.333333 85.333334v682.666666a85.333333 85.333333 0 0 1-85.333333 85.333334H85.333333a85.333333 85.333333 0 0 1-85.333333-85.333334V170.666667a85.333333 85.333333 0 0 1 85.333333-85.333334z" fill="#000000" p-id="8567"></path><path d="M256 298.666667m64 0l0 0q64 0 64 64l0 42.666666q0 64-64 64l0 0q-64 0-64-64l0-42.666666q0-64 64-64Z" fill="#000000" p-id="8568"></path><path d="M640 298.666667m64 0l0 0q64 0 64 64l0 42.666666q0 64-64 64l0 0q-64 0-64-64l0-42.666666q0-64 64-64Z" fill="#000000" p-id="8569"></path><path d="M288.170667 674.346667a42.666667 42.666667 0 1 1 61.781333-58.88C390.229333 657.792 448.725333 682.666667 512 682.666667c63.914667 0 122.88-25.386667 163.157333-68.352a42.666667 42.666667 0 1 1 62.293334 58.325333C680.96 732.885333 599.381333 768 512 768c-86.570667 0-167.424-34.432-223.829333-93.653333z" fill="#000000" p-id="8570"></path></svg>